<svg width="181" height="54" viewBox="0 0 181 54" fill="none" xmlns="http://www.w3.org/2000/svg">
    <path
        d="M173.667 53.6665H7.00015C3.33348 53.6665 0.333481 50.6665 0.333481 46.9998V6.99984C0.333481 3.33317 3.33348 0.333174 7.00015 0.333174H173.667C177.333 0.333174 180.333 3.33317 180.333 6.99984V46.9998C180.333 50.6665 177.333 53.6665 173.667 53.6665Z"
        fill="black" />
    <path
        d="M173.667 0.333479H7.00015C3.33348 0.333479 0.333481 3.33348 0.333481 7.00015V47.0001C0.333481 50.6668 3.33348 53.6668 7.00015 53.6668H173.667C177.333 53.6668 180.333 50.6668 180.333 47.0001V7.00015C180.333 3.33348 177.333 0.333479 173.667 0.333479ZM173.667 1.40014C176.755 1.40014 179.267 3.91215 179.267 7.00015V47.0001C179.267 50.0881 176.755 52.6001 173.667 52.6001H7.00015C3.91215 52.6001 1.40015 50.0881 1.40015 47.0001V7.00015C1.40015 3.91215 3.91215 1.40014 7.00015 1.40014H173.667Z"
        fill="#A6A6A6" />
    <path
        d="M63.558 13.9909C63.558 15.1082 63.2273 15.9976 62.5647 16.6616C61.8113 17.4509 60.8313 17.8456 59.626 17.8456C58.47 17.8456 57.4887 17.4456 56.682 16.6442C55.8727 15.8442 55.47 14.8509 55.47 13.6669C55.47 12.4816 55.8727 11.4896 56.682 10.6882C57.4887 9.88825 58.47 9.48691 59.626 9.48691C60.198 9.48691 60.7473 9.59891 61.2673 9.82291C61.7887 10.0469 62.206 10.3442 62.5193 10.7162L61.8153 11.4202C61.286 10.7882 60.5567 10.4709 59.626 10.4709C58.7833 10.4709 58.0553 10.7669 57.4407 11.3589C56.826 11.9522 56.5193 12.7202 56.5193 13.6669C56.5193 14.6122 56.826 15.3816 57.4407 15.9736C58.0553 16.5669 58.7833 16.8616 59.626 16.8616C60.5193 16.8616 61.2633 16.5642 61.8607 15.9682C62.2473 15.5802 62.47 15.0416 62.53 14.3482H59.626V13.3869H63.502C63.5393 13.5962 63.558 13.7976 63.558 13.9909Z"
        fill="white" />
    <path
        d="M63.558 13.9909C63.558 15.1082 63.2273 15.9976 62.5647 16.6616C61.8113 17.4509 60.8313 17.8456 59.626 17.8456C58.47 17.8456 57.4887 17.4456 56.682 16.6442C55.8727 15.8442 55.47 14.8509 55.47 13.6669C55.47 12.4816 55.8727 11.4896 56.682 10.6882C57.4887 9.88825 58.47 9.48691 59.626 9.48691C60.198 9.48691 60.7473 9.59891 61.2673 9.82291C61.7887 10.0469 62.206 10.3442 62.5193 10.7162L61.8153 11.4202C61.286 10.7882 60.5567 10.4709 59.626 10.4709C58.7833 10.4709 58.0553 10.7669 57.4407 11.3589C56.826 11.9522 56.5193 12.7202 56.5193 13.6669C56.5193 14.6122 56.826 15.3816 57.4407 15.9736C58.0553 16.5669 58.7833 16.8616 59.626 16.8616C60.5193 16.8616 61.2633 16.5642 61.8607 15.9682C62.2473 15.5802 62.47 15.0416 62.53 14.3482H59.626V13.3869H63.502C63.5393 13.5962 63.558 13.7976 63.558 13.9909Z"
        stroke="white" stroke-width="0.266667" stroke-miterlimit="10" />
    <path
        d="M69.7037 10.6497H66.0611V13.1857H69.3464V14.1471H66.0611V16.6831H69.7037V17.6671H65.0331V9.66705H69.7037V10.6497Z"
        fill="white" />
    <path
        d="M69.7037 10.6497H66.0611V13.1857H69.3464V14.1471H66.0611V16.6831H69.7037V17.6671H65.0331V9.66705H69.7037V10.6497Z"
        stroke="white" stroke-width="0.266667" stroke-miterlimit="10" />
    <path d="M74.0384 17.6667H73.0104V10.6494H70.7757V9.66669H76.2731V10.6494H74.0384V17.6667Z"
        fill="white" />
    <path d="M74.0384 17.6667H73.0104V10.6494H70.7757V9.66669H76.2731V10.6494H74.0384V17.6667Z"
        stroke="white" stroke-width="0.266667" stroke-miterlimit="10" />
    <path d="M80.2507 9.66669H81.2787V17.6667H80.2507V9.66669Z" fill="white" stroke="white"
        stroke-width="0.266667" stroke-miterlimit="10" />
    <path d="M85.8379 17.6667H84.8099V10.6494H82.5752V9.66669H88.0725V10.6494H85.8379V17.6667Z"
        fill="white" />
    <path d="M85.8379 17.6667H84.8099V10.6494H82.5752V9.66669H88.0725V10.6494H85.8379V17.6667Z"
        stroke="white" stroke-width="0.266667" stroke-miterlimit="10" />
    <path
        d="M93.3724 15.9629C93.9644 16.5629 94.6884 16.8616 95.5457 16.8616C96.4031 16.8616 97.1271 16.5629 97.7191 15.9629C98.3111 15.3629 98.6084 14.5976 98.6084 13.6669C98.6084 12.7362 98.3111 11.9696 97.7191 11.3709C97.1271 10.7709 96.4031 10.4709 95.5457 10.4709C94.6884 10.4709 93.9644 10.7709 93.3724 11.3709C92.7817 11.9696 92.4844 12.7362 92.4844 13.6669C92.4844 14.5976 92.7817 15.3629 93.3724 15.9629ZM98.4791 16.6322C97.6924 17.4416 96.7151 17.8456 95.5457 17.8456C94.3764 17.8456 93.3991 17.4416 92.6137 16.6322C91.8271 15.8242 91.4351 14.8362 91.4351 13.6669C91.4351 12.4976 91.8271 11.5082 92.6137 10.7002C93.3991 9.89225 94.3764 9.48691 95.5457 9.48691C96.7084 9.48691 97.6831 9.89358 98.4737 10.7056C99.2631 11.5176 99.6577 12.5042 99.6577 13.6669C99.6577 14.8362 99.2644 15.8242 98.4791 16.6322Z"
        fill="white" />
    <path
        d="M93.3724 15.9629C93.9644 16.5629 94.6884 16.8616 95.5457 16.8616C96.4031 16.8616 97.1271 16.5629 97.7191 15.9629C98.3111 15.3629 98.6084 14.5976 98.6084 13.6669C98.6084 12.7362 98.3111 11.9696 97.7191 11.3709C97.1271 10.7709 96.4031 10.4709 95.5457 10.4709C94.6884 10.4709 93.9644 10.7709 93.3724 11.3709C92.7817 11.9696 92.4844 12.7362 92.4844 13.6669C92.4844 14.5976 92.7817 15.3629 93.3724 15.9629ZM98.4791 16.6322C97.6924 17.4416 96.7151 17.8456 95.5457 17.8456C94.3764 17.8456 93.3991 17.4416 92.6137 16.6322C91.8271 15.8242 91.4351 14.8362 91.4351 13.6669C91.4351 12.4976 91.8271 11.5082 92.6137 10.7002C93.3991 9.89225 94.3764 9.48691 95.5457 9.48691C96.7084 9.48691 97.6831 9.89358 98.4737 10.7056C99.2631 11.5176 99.6577 12.5042 99.6577 13.6669C99.6577 14.8362 99.2644 15.8242 98.4791 16.6322Z"
        stroke="white" stroke-width="0.266667" stroke-miterlimit="10" />
    <path
        d="M101.1 17.6667V9.66669H102.351L106.239 15.8894H106.284L106.239 14.348V9.66669H107.268V17.6667H106.195L102.127 11.1414H102.083L102.127 12.684V17.6667H101.1Z"
        fill="white" />
    <path
        d="M101.1 17.6667V9.66669H102.351L106.239 15.8894H106.284L106.239 14.348V9.66669H107.268V17.6667H106.195L102.127 11.1414H102.083L102.127 12.684V17.6667H101.1Z"
        stroke="white" stroke-width="0.266667" stroke-miterlimit="10" />
    <path
        d="M142.915 40.3333H145.403V23.6653H142.915V40.3333ZM165.324 29.6693L162.472 36.896H162.387L159.427 29.6693H156.747L161.185 39.7693L158.656 45.388H161.249L168.091 29.6693H165.324ZM151.215 38.44C150.399 38.44 149.263 38.0333 149.263 37.024C149.263 35.7387 150.677 35.2453 151.9 35.2453C152.993 35.2453 153.509 35.4813 154.173 35.8027C153.98 37.3467 152.651 38.44 151.215 38.44ZM151.515 29.3053C149.713 29.3053 147.847 30.0987 147.076 31.8573L149.284 32.7787C149.756 31.8573 150.635 31.556 151.557 31.556C152.844 31.556 154.152 32.328 154.173 33.7013V33.872C153.723 33.6147 152.759 33.2293 151.579 33.2293C149.199 33.2293 146.775 34.5373 146.775 36.9813C146.775 39.212 148.727 40.6493 150.913 40.6493C152.587 40.6493 153.509 39.8987 154.088 39.0187H154.173V40.3053H156.575V33.9147C156.575 30.956 154.367 29.3053 151.515 29.3053ZM136.139 31.6987H132.6V25.9853H136.139C137.999 25.9853 139.055 27.5253 139.055 28.8413C139.055 30.1333 137.999 31.6987 136.139 31.6987ZM136.075 23.6653H130.113V40.3333H132.6V34.0187H136.075C138.832 34.0187 141.543 32.0213 141.543 28.8413C141.543 25.6613 138.832 23.6653 136.075 23.6653ZM103.567 38.4427C101.848 38.4427 100.409 37.004 100.409 35.028C100.409 33.0307 101.848 31.5693 103.567 31.5693C105.264 31.5693 106.595 33.0307 106.595 35.028C106.595 37.004 105.264 38.4427 103.567 38.4427ZM106.424 30.6027H106.337C105.779 29.9373 104.705 29.336 103.352 29.336C100.516 29.336 97.9173 31.8267 97.9173 35.028C97.9173 38.2067 100.516 40.6773 103.352 40.6773C104.705 40.6773 105.779 40.076 106.337 39.388H106.424V40.2053C106.424 42.3747 105.264 43.5347 103.395 43.5347C101.869 43.5347 100.924 42.4387 100.537 41.5147L98.368 42.4173C98.9907 43.9213 100.645 45.768 103.395 45.768C106.316 45.768 108.787 44.0493 108.787 39.8613V29.6787H106.424V30.6027ZM110.505 40.3333H112.997V23.664H110.505V40.3333ZM116.669 34.8347C116.605 32.644 118.367 31.5267 119.633 31.5267C120.623 31.5267 121.46 32.02 121.739 32.7293L116.669 34.8347ZM124.403 32.944C123.931 31.6773 122.491 29.336 119.548 29.336C116.627 29.336 114.2 31.6333 114.2 35.0067C114.2 38.1853 116.605 40.6773 119.827 40.6773C122.427 40.6773 123.931 39.088 124.553 38.164L122.62 36.8747C121.976 37.82 121.095 38.4427 119.827 38.4427C118.56 38.4427 117.657 37.8627 117.077 36.7253L124.66 33.588L124.403 32.944ZM63.992 31.076V33.4813H69.748C69.576 34.8347 69.1253 35.8227 68.4387 36.5093C67.6 37.348 66.2893 38.272 63.992 38.272C60.4467 38.272 57.676 35.4147 57.676 31.8707C57.676 28.3253 60.4467 25.4693 63.992 25.4693C65.904 25.4693 67.3 26.2213 68.3307 27.188L70.028 25.4907C68.588 24.116 66.6773 23.0627 63.992 23.0627C59.1373 23.0627 55.056 27.016 55.056 31.8707C55.056 36.7253 59.1373 40.6773 63.992 40.6773C66.612 40.6773 68.588 39.8173 70.1347 38.2067C71.7253 36.6173 72.2187 34.384 72.2187 32.5787C72.2187 32.02 72.176 31.5053 72.0893 31.076H63.992ZM78.764 38.4427C77.0453 38.4427 75.5627 37.0253 75.5627 35.0067C75.5627 32.9653 77.0453 31.5693 78.764 31.5693C80.4813 31.5693 81.964 32.9653 81.964 35.0067C81.964 37.0253 80.4813 38.4427 78.764 38.4427ZM78.764 29.336C75.6267 29.336 73.0707 31.72 73.0707 35.0067C73.0707 38.272 75.6267 40.6773 78.764 40.6773C81.9 40.6773 84.456 38.272 84.456 35.0067C84.456 31.72 81.9 29.336 78.764 29.336ZM91.1813 38.4427C89.4627 38.4427 87.98 37.0253 87.98 35.0067C87.98 32.9653 89.4627 31.5693 91.1813 31.5693C92.9 31.5693 94.3813 32.9653 94.3813 35.0067C94.3813 37.0253 92.9 38.4427 91.1813 38.4427ZM91.1813 29.336C88.0453 29.336 85.4893 31.72 85.4893 35.0067C85.4893 38.272 88.0453 40.6773 91.1813 40.6773C94.3173 40.6773 96.8733 38.272 96.8733 35.0067C96.8733 31.72 94.3173 29.336 91.1813 29.336Z"
        fill="white" />
    <path
        d="M27.9564 26.2321L13.7604 41.2988C13.7617 41.3015 13.7617 41.3055 13.7631 41.3081C14.1991 42.9441 15.6924 44.1481 17.4657 44.1481C18.1751 44.1481 18.8404 43.9561 19.4111 43.6201L19.4564 43.5935L35.4351 34.3735L27.9564 26.2321Z"
        fill="#EA4335" />
    <path
        d="M42.3176 23.6666L42.3043 23.6572L35.4056 19.6586L27.6336 26.5746L35.4336 34.3719L42.2949 30.4132C43.4976 29.7626 44.3149 28.4946 44.3149 27.0332C44.3149 25.5799 43.5096 24.3186 42.3176 23.6666Z"
        fill="#FBBC04" />
    <path
        d="M13.7601 12.7028C13.6748 13.0175 13.6295 13.3482 13.6295 13.6895V40.3135C13.6295 40.6548 13.6748 40.9855 13.7615 41.2988L28.4441 26.6175L13.7601 12.7028Z"
        fill="#4285F4" />
    <path
        d="M28.0612 27.0012L35.4079 19.6559L19.4479 10.4026C18.8679 10.0546 18.1905 9.85456 17.4665 9.85456C15.6932 9.85456 14.1972 11.0612 13.7612 12.6986L13.7599 12.7026L28.0612 27.0012Z"
        fill="#34A853" />
</svg>